<?xml version="1.0" encoding="utf-8"?>
<!-- Generator: Adobe Illustrator 22.1.0, SVG Export Plug-In . SVG Version: 6.00 Build 0)  -->
<svg version="1.1" id="Layer_1" xmlns="http://www.w3.org/2000/svg" xmlns:xlink="http://www.w3.org/1999/xlink" x="0px" y="0px"
	 viewBox="0 0 306.6 179" style="enable-background:new 0 0 306.6 179;" xml:space="preserve">
<style type="text/css">
	.st0{fill:#333;}
	.st1{fill:#333;}
</style>
<g>
	<path class="st0" d="M0.8,0v114.9h306.6V0H0.8z M302.3,109.8H5.7V4.9h296.6V109.8z"/>
	<g>
		<path class="st0" d="M112.5,163.2c2.5,0,4,1.2,4,3.1c0,1.5-0.9,2.5-2.3,2.8c1.7,0.3,2.8,1.5,2.8,3.1c0,2.1-1.6,3.4-4.5,3.4h-5.3
			v-12.4L112.5,163.2L112.5,163.2z M108.7,168.5h3.7c1.6,0,2.6-0.7,2.6-2c0-1.3-1-1.9-2.6-1.9h-3.7V168.5z M108.7,174.1h3.7
			c2,0,3.2-0.8,3.2-2.2c0-1.4-1.2-2.1-3.2-2.1h-3.7V174.1z"/>
		<path class="st0" d="M122.7,176.9c-0.6,1.5-1.6,2.1-2.8,2.1c-0.8,0-1.4-0.2-1.9-0.7l0.6-1.2c0.4,0.3,0.9,0.5,1.3,0.5
			c0.7,0,1.4-0.5,1.6-1.3l0.4-0.9l-3.9-9.2h1.5l3.1,7.7l2.9-7.7h1.5L122.7,176.9z"/>
		<path class="st0" d="M137.4,169.7l-2.4,2.6v3.2h-1.5v-12.4h1.5v7.1l6.7-7.1h1.6l-4.9,5.3l5.2,7H142L137.4,169.7z"/>
		<path class="st0" d="M151.6,174.1c-0.8,1-1.9,1.5-3.4,1.5c-1.9,0-3.2-1.3-3.2-2.8c0-1.6,1.3-2.6,3.5-2.7h3.1v-0.6
			c0-1.4-0.9-2.1-2.5-2.1c-1.1,0-1.9,0.4-2.9,1.1l-0.6-1c1.2-0.8,2.2-1.3,3.8-1.3c2.3,0,3.6,1.3,3.6,3.2v6.1h-1.4L151.6,174.1
			L151.6,174.1z M151.6,172.3v-1.1h-2.9c-1.6,0-2.3,0.5-2.3,1.5c0,1,0.9,1.6,2.1,1.6C150,174.3,151.2,173.6,151.6,172.3z"/>
		<path class="st0" d="M157.4,168.2c0.6-1.4,1.7-2.1,3.3-2.1v1.4c-1.9,0-3.2,1.2-3.3,3v4.9H156v-9.3h1.4V168.2z"/>
		<path class="st0" d="M164.2,163.6c0,0.6-0.4,1-0.9,1s-0.9-0.4-0.9-1s0.4-1,0.9-1S164.2,163,164.2,163.6z M162.5,175.5v-9.3h1.4
			v9.3H162.5z"/>
		<path class="st0" d="M172.7,167l-0.5,1.1c-0.7-0.5-1.6-0.8-2.5-0.8c-1.1,0-1.8,0.4-1.8,1.3c0,2,5.2,1,5.2,4.4
			c0,1.8-1.6,2.6-3.4,2.6c-1.4,0-2.7-0.5-3.6-1.3l0.5-1.1c0.8,0.8,2,1.2,3.1,1.2s1.9-0.4,2-1.4c0.1-2.2-5.1-1.1-5.1-4.4
			c0-1.7,1.6-2.5,3.2-2.5C170.9,166.1,171.9,166.5,172.7,167z"/>
		<path class="st0" d="M190.7,169.8v5.7h-1.4v-5.3c0-1.6-1-2.6-2.6-2.6c-1.9,0.1-3,1.5-3,3.4v4.6h-1.4v-5.3c0-1.6-1-2.6-2.6-2.6
			c-1.9,0.1-3.1,1.5-3.1,3.4v4.6h-1.4v-9.3h1.4v2.1c0.6-1.5,1.8-2.1,3.6-2.1c1.7,0,2.9,0.9,3.3,2.4c0.6-1.6,1.9-2.4,3.7-2.4
			C189.4,166.1,190.7,167.6,190.7,169.8z"/>
		<path class="st0" d="M199.6,174.1c-0.8,1-1.9,1.5-3.4,1.5c-1.9,0-3.2-1.3-3.2-2.8c0-1.6,1.3-2.6,3.5-2.7h3.1v-0.6
			c0-1.4-0.9-2.1-2.5-2.1c-1.1,0-1.9,0.4-2.9,1.1l-0.6-1c1.2-0.8,2.2-1.3,3.8-1.3c2.3,0,3.6,1.3,3.6,3.2v6.1h-1.4L199.6,174.1
			L199.6,174.1z M199.5,172.3v-1.1h-2.9c-1.6,0-2.3,0.5-2.3,1.5c0,1,0.9,1.6,2.1,1.6C197.9,174.3,199.2,173.6,199.5,172.3z"/>
	</g>
	<g>
		<polygon class="st1" points="203.4,56.8 173.5,56.8 173.5,24.8 168.7,24.8 168.7,61.4 208.1,61.4 208.1,24.8 203.4,24.8 		"/>
		<polygon class="st1" points="98.9,61.1 135,61.1 135,56.4 109.1,56.4 135.2,25.2 99.3,25.2 99.3,29.9 125.1,29.9 		"/>
		<polygon class="st1" points="278.3,56.8 247.3,56.8 247.3,24.8 242.6,24.8 242.6,61.4 278.3,61.4 		"/>
		<polygon class="st1" points="49.7,25.5 29.9,61.4 29.9,61.4 35.4,61.4 49.7,35 61.7,57.2 53.2,57.2 51,61.4 64.1,61.4 69.6,61.4
			69.6,61.4 		"/>
	</g>
	<path class="st1" d="M35.1,73.7c3.5,0,5.6,1.6,5.6,4.2c0,1.9-1.2,3.3-2.9,3.8c2.2,0.4,3.6,2,3.6,4.3c0,2.9-2.3,4.6-6.1,4.6h-7.5
		V73.7H35.1z M30.7,80.7H35c1.8,0,2.9-0.9,2.9-2.2c0-1.5-1.1-2.2-2.9-2.2h-4.3V80.7z M30.7,88.1H35c2.2,0,3.5-0.9,3.5-2.4
		c0-1.5-1.4-2.3-3.5-2.3h-4.3V88.1z"/>
	<polygon class="st1" points="53.4,76.4 53.4,80.8 61.6,80.8 61.6,83.4 53.4,83.4 53.4,88 62.9,88 62.9,90.6 50.6,90.6 50.6,73.7
		62.6,73.7 62.6,76.4 	"/>
	<path class="st1" d="M74.5,86.7l-1.6,3.8H70l7.5-16.8h2.9l7.4,16.8h-3l-1.6-3.8H74.5z M78.8,76.8l-3.2,7.5h6.3L78.8,76.8z"/>
	<path class="st1" d="M109.2,76.3l-1.6,2c-1.3-1.4-3-2.1-4.7-2.1c-3.4,0-6,2.6-6,5.9s2.6,5.9,6,5.9c1.6,0,3.4-0.8,4.7-2l1.6,1.8
		c-1.7,1.6-4.2,2.7-6.5,2.7c-4.9,0-8.7-3.7-8.7-8.5c0-4.8,3.9-8.4,8.8-8.4C105.1,73.7,107.5,74.7,109.2,76.3"/>
	<polygon class="st1" points="129.6,90.6 129.6,83.6 120.7,83.6 120.7,90.6 117.9,90.6 117.9,73.7 120.7,73.7 120.7,81.1
		129.6,81.1 129.6,73.7 132.5,73.7 132.5,90.6 	"/>
	<path class="st1" d="M162.3,85.5c-0.2,0-0.5,0-0.8,0h-4v5h-2.8V73.7h6.8c4.3,0,6.8,2.1,6.8,5.7c0,2.7-1.3,4.6-3.5,5.4l3.8,5.6h-3.2
		L162.3,85.5z M161.6,83c2.6,0,4.1-1.1,4.1-3.4c0-2.2-1.5-3.3-4.1-3.3h-4V83H161.6z"/>
	<polygon class="st1" points="180.9,76.4 180.9,80.8 189,80.8 189,83.4 180.9,83.4 180.9,88 190.3,88 190.3,90.6 178,90.6 178,73.7
		190,73.7 190,76.4 	"/>
	<path class="st1" d="M210.9,75.4l-1.2,2.5c-1.8-1.1-3.7-1.6-4.9-1.6c-1.6,0-2.7,0.6-2.7,1.7c0,3.7,9,1.7,9,7.8c0,3-2.6,4.9-6.3,4.9
		c-2.6,0-5.1-1.1-6.9-2.6l1.3-2.4c1.7,1.6,3.9,2.4,5.7,2.4c1.9,0,3.1-0.8,3.1-2c0-3.8-9-1.6-9-7.7c0-2.9,2.4-4.7,6.1-4.7
		C207.3,73.6,209.4,74.3,210.9,75.4"/>
	<path class="st1" d="M236.8,82.2c0,4.8-3.9,8.5-8.9,8.5s-8.9-3.7-8.9-8.5c0-4.9,3.9-8.4,8.9-8.4S236.8,77.4,236.8,82.2 M221.8,82.2
		c0,3.3,2.7,6,6,6c3.3,0,6-2.6,6-6c0-3.3-2.7-5.9-6-5.9C224.6,76.3,221.8,78.9,221.8,82.2"/>
	<path class="st1" d="M253.2,85.5c-0.2,0-0.5,0-0.8,0h-4v5h-2.8V73.7h6.8c4.3,0,6.8,2.1,6.8,5.7c0,2.7-1.3,4.6-3.5,5.4l3.8,5.6h-3.2
		L253.2,85.5z M252.5,83c2.6,0,4.1-1.1,4.1-3.4c0-2.2-1.5-3.3-4.1-3.3h-4V83H252.5z"/>
	<polygon class="st1" points="275,76.4 275,90.6 272.2,90.6 272.2,76.4 266.8,76.4 266.8,73.7 280.3,73.7 280.3,76.4 	"/>
	<g>
		<polygon class="st1" points="132.2,135.1 132.2,149.2 129.4,149.2 129.4,135.1 124,135.1 124,132.4 137.5,132.4 137.5,135.1 		"/>
		<polygon class="st0" points="67.8,149.3 65,149.3 65,132.4 69.4,132.4 74.5,143 79.6,132.4 84,132.4 84,149.3 81.1,149.3
			81.1,136.1 75.3,147.8 73.7,147.8 67.8,136.1 		"/>
		<path class="st1" d="M103.8,140.9c0,4.8-3.9,8.5-8.9,8.5s-8.9-3.7-8.9-8.5c0-4.9,3.9-8.4,8.9-8.4C100,132.3,103.8,136,103.8,140.9
			 M88.9,140.9c0,3.3,2.7,6,6,6c3.3,0,6-2.6,6-6c0-3.3-2.7-5.9-6-5.9C91.6,135,88.9,137.5,88.9,140.9"/>
		<path class="st1" d="M117.6,149.2l-8.8-11.9v11.9H106v-16.7h2.7l8.9,11.9v-11.9h2.7v16.7H117.6z"/>
		<polygon class="st1" points="145.1,135.1 145.1,139.5 153.2,139.5 153.2,142 145.1,142 145.1,146.7 154.5,146.7 154.5,149.2
			142.3,149.2 142.3,132.4 154.2,132.4 154.2,135.1 		"/>
		<path class="st1" d="M170.4,149.2l-8.8-11.9v11.9h-2.8v-16.7h2.7l8.9,11.9v-11.9h2.7v16.7H170.4z"/>
		<polygon class="st1" points="180.3,135.1 180.3,139.5 188.4,139.5 188.4,142 180.3,142 180.3,146.7 189.7,146.7 189.7,149.2
			177.5,149.2 177.5,132.4 189.4,132.4 189.4,135.1 		"/>
		<path class="st1" d="M217.8,144.2c-0.2,0-0.5,0-0.8,0h-4v5h-2.8v-16.8h6.8c4.3,0,6.8,2.1,6.8,5.7c0,2.7-1.3,4.6-3.5,5.4l3.8,5.6
			h-3.2L217.8,144.2z M217.1,141.6c2.6,0,4.1-1.1,4.1-3.4c0-2.2-1.5-3.3-4.1-3.3h-4v6.7H217.1z"/>
		<path class="st1" d="M243.7,140.9c0,4.8-3.9,8.5-8.9,8.5s-8.9-3.7-8.9-8.5c0-4.9,3.9-8.4,8.9-8.4
			C239.9,132.3,243.7,136,243.7,140.9 M228.8,140.9c0,3.3,2.7,6,6,6c3.3,0,6-2.6,6-6c0-3.3-2.7-5.9-6-5.9
			C231.5,135,228.8,137.5,228.8,140.9"/>
		<path class="st0" d="M207.2,147.7c-1.9,1.1-4.2,1.6-6.6,1.6c-4.9,0-8.4-3.4-8.4-8.3c0-5.1,3.5-8.4,8.4-8.4c2.4,0,4.7,0.5,6.3,2
			l-2.1,2.1c-1-1-2.6-1.6-4.2-1.6c-3.3,0-5.5,2.5-5.5,5.7c0,3.4,2.2,5.9,5.5,5.9c1.5,0,2.7-0.3,3.8-0.9V142H201v-2.6h6.1V147.7z"/>
	</g>
</g>
</svg>
