<?xml version="1.0" standalone="no"?>
<!DOCTYPE svg PUBLIC "-//W3C//DTD SVG 20010904//EN"
 "http://www.w3.org/TR/2001/REC-SVG-20010904/DTD/svg10.dtd">
<svg version="1.0" xmlns="http://www.w3.org/2000/svg"
 width="192.000000pt" height="294.000000pt" viewBox="0 0 192.000000 294.000000"
 preserveAspectRatio="xMidYMid meet">

<g transform="translate(0.000000,294.000000) scale(0.100000,-0.100000)"
fill="#ffffff" stroke="none">
<path d="M878 2903 c22 -9 2 -23 -34 -23 -37 0 -162 -28 -179 -40 -5 -4 -28
-13 -50 -20 -48 -15 -194 -109 -254 -165 -99 -90 -186 -230 -225 -361 -52
-175 -62 -282 -37 -374 7 -25 22 -79 33 -120 21 -83 96 -290 109 -305 5 -5 9
-15 9 -22 0 -22 198 -434 291 -603 62 -115 137 -251 186 -338 39 -70 176 -301
206 -349 15 -24 27 -48 27 -54 0 -20 22 -3 44 33 76 130 229 392 247 424 155
276 266 488 363 699 21 44 41 87 46 96 19 36 104 249 127 319 37 115 51 169
59 238 5 51 9 60 20 51 12 -9 14 -3 14 34 0 36 -3 45 -14 41 -11 -4 -16 10
-21 63 -10 110 -25 162 -81 278 -61 129 -138 226 -239 302 -109 82 -269 154
-376 168 -74 10 -90 15 -84 25 4 6 -33 10 -97 9 -57 0 -97 -3 -90 -6z m221
-184 c36 -6 80 -17 96 -24 17 -8 52 -23 78 -35 103 -45 208 -133 281 -235 69
-96 96 -156 122 -275 30 -138 12 -275 -56 -425 -62 -135 -208 -278 -351 -344
-82 -38 -221 -71 -297 -71 -61 0 -191 28 -263 56 -178 70 -346 248 -414 439
-58 163 -43 363 40 527 38 75 39 77 110 155 86 95 174 154 310 209 75 30 237
41 344 23z"/>
<path d="M890 2475 c-45 -24 -320 -156 -437 -210 -35 -16 -63 -32 -63 -35 0
-3 33 -20 73 -39 127 -60 401 -192 443 -213 l41 -21 114 55 c106 52 214 104
381 182 62 28 84 46 58 46 -5 0 -85 37 -177 81 -266 129 -373 179 -381 178 -4
0 -27 -11 -52 -24z"/>
<path d="M1430 1950 c0 -99 -4 -169 -12 -185 -8 -19 -8 -31 0 -50 26 -57 68
-7 46 54 -9 23 -13 91 -14 189 0 94 -4 152 -10 152 -6 0 -10 -60 -10 -160z"/>
<path d="M589 2040 c0 -3 0 -31 -1 -62 0 -58 6 -78 23 -78 8 0 89 -37 263
-121 76 -36 86 -34 366 104 l65 32 3 66 3 67 -98 -49 c-207 -101 -247 -119
-267 -119 -12 0 -96 38 -188 83 -93 45 -168 80 -169 77z"/>
</g>
</svg>
