<?xml version="1.0" standalone="no"?>
<!DOCTYPE svg PUBLIC "-//W3C//DTD SVG 20010904//EN"
 "http://www.w3.org/TR/2001/REC-SVG-20010904/DTD/svg10.dtd">
<svg version="1.0" xmlns="http://www.w3.org/2000/svg"
 width="506.000000pt" height="137.000000pt" viewBox="0 0 506.000000 137.000000"
 preserveAspectRatio="xMidYMid meet">

<g transform="translate(0.000000,137.000000) scale(0.100000,-0.100000)"
fill="#ffffff" stroke="none">
<path d="M403 1350 c-60 -9 -166 -56 -218 -97 -82 -65 -146 -199 -147 -307 0
-103 77 -300 222 -567 84 -156 192 -339 200 -339 9 0 127 201 220 375 49 94
114 229 143 300 51 127 52 133 52 230 0 94 -2 105 -34 169 -19 38 -53 89 -77
112 -50 51 -165 111 -226 119 -24 4 -52 8 -63 9 -11 2 -43 0 -72 -4z m203
-113 c63 -32 129 -98 162 -162 23 -43 27 -63 27 -135 0 -73 -4 -93 -28 -142
-99 -201 -369 -252 -536 -102 -74 67 -106 138 -106 239 0 98 22 151 92 226 78
84 145 110 264 105 56 -3 88 -10 125 -29z"/>
<path d="M311 1101 l-134 -66 129 -62 c71 -35 136 -63 144 -63 8 1 73 29 144
63 l129 62 -139 66 -140 66 -133 -66z"/>
<path d="M678 885 c-3 -55 -4 -102 -2 -104 14 -15 20 27 15 109 l-6 95 -7
-100z"/>
<path d="M280 915 c0 -29 5 -34 78 -68 42 -20 82 -37 87 -37 6 0 47 17 93 37
79 36 82 38 82 70 l0 33 -67 -34 c-103 -51 -102 -51 -192 -8 l-81 39 0 -32z"/>
<path d="M3380 780 l0 -340 45 0 45 0 0 138 c0 152 6 174 59 209 48 32 84 30
115 -8 26 -30 26 -33 26 -185 l0 -154 45 0 45 0 0 153 c0 179 -8 214 -57 257
-33 30 -41 32 -93 28 -46 -3 -65 -11 -99 -37 l-41 -33 0 156 0 156 -45 0 -45
0 0 -340z"/>
<path d="M4360 780 l0 -340 45 0 45 0 0 340 0 340 -45 0 -45 0 0 -340z"/>
<path d="M2180 935 l0 -65 -35 0 c-34 0 -35 -1 -35 -40 0 -39 1 -40 35 -40
l35 0 0 -175 0 -175 45 0 45 0 0 175 0 175 45 0 45 0 0 40 0 40 -45 0 -45 0 0
65 0 65 -45 0 -45 0 0 -65z"/>
<path d="M1150 869 c-14 -6 -42 -26 -62 -47 l-38 -36 0 42 0 42 -40 0 -40 0 0
-320 0 -320 40 0 40 0 0 146 0 146 41 -36 c49 -45 76 -56 139 -56 66 0 135 46
170 115 45 88 31 203 -34 273 -49 55 -148 78 -216 51z m116 -89 c18 -12 42
-40 54 -65 28 -58 19 -106 -30 -159 -32 -34 -43 -40 -91 -43 -45 -4 -60 -1
-89 19 -93 62 -91 191 2 248 43 26 111 26 154 0z"/>
<path d="M1649 851 c-82 -51 -120 -145 -99 -244 21 -105 100 -177 194 -177 60
0 94 14 139 58 l37 36 0 -42 0 -42 45 0 45 0 0 215 0 215 -45 0 -45 0 0 -41 0
-41 -41 36 c-49 45 -76 56 -138 56 -35 0 -59 -8 -92 -29z m209 -71 c128 -78
73 -270 -78 -270 -83 0 -140 59 -140 146 0 38 6 59 22 79 50 64 133 83 196 45z"/>
<path d="M2539 852 c-99 -63 -132 -205 -72 -313 64 -119 203 -146 299 -57 l44
41 0 -42 0 -41 45 0 45 0 0 215 0 215 -45 0 -45 0 0 -42 0 -42 -37 36 c-69 67
-157 78 -234 30z m209 -72 c52 -32 74 -76 69 -139 -3 -48 -8 -58 -45 -93 -38
-35 -46 -38 -97 -38 -51 0 -59 3 -98 39 -41 39 -42 41 -42 104 0 51 4 70 20
87 54 61 132 77 193 40z"/>
<path d="M3095 870 c-44 -18 -70 -59 -70 -110 0 -60 17 -80 104 -121 36 -17
74 -38 84 -47 57 -51 -36 -107 -113 -67 -27 14 -33 14 -61 -1 l-31 -16 23 -25
c34 -36 72 -53 119 -53 88 0 150 56 150 137 0 56 -26 84 -120 131 -76 37 -93
59 -70 87 16 19 80 19 107 0 20 -14 24 -13 49 8 32 28 27 40 -26 67 -40 21
-109 25 -145 10z"/>
<path d="M4693 859 c-80 -39 -123 -111 -123 -204 0 -134 91 -225 225 -225 64
0 133 25 173 62 28 27 28 30 -9 57 -31 23 -31 23 -52 3 -35 -31 -63 -42 -107
-42 -56 0 -105 25 -130 65 -40 65 -41 65 166 65 l187 0 -7 41 c-25 156 -187
246 -323 178z m167 -74 c27 -14 60 -51 60 -67 0 -5 -58 -8 -130 -8 -71 0 -130
3 -130 6 0 17 25 47 53 64 38 24 106 26 147 5z"/>
<path d="M3862 707 c3 -155 4 -165 28 -200 71 -106 256 -101 317 8 21 37 23
53 23 198 l0 157 -39 0 -39 0 -4 -151 -3 -151 -34 -30 c-29 -26 -39 -30 -75
-25 -27 4 -49 15 -63 32 -22 25 -23 35 -23 176 l0 149 -46 0 -45 0 3 -163z"/>
</g>
</svg>
